:SAMPLES-PER-SECOND 30
:FULLY-SPECIFIED
:DEGREES
456
root  62.5888 25.7143 10.5644 -172.331 -9.65908 -164.29
RightUpLeg  -25.9023 -17.1798 5.62751
RightLeg  75.2196 -1.17527 -3.76224
RightFoot  -21.6283 0.367197 2.29979
RightToes  -66.0806 -0.452662 -0.41081
Spine  17.8902 0.45626 1.23877
Spine1  30.5888 3.61226 0.787269
HEad  21.1445 19.084 -4.58667
LeftShoulder1  0 -2.42657e-020 -4.95415e-022
LeftArm  -38.3409 -31.0973 -62.1543
LeftForeArm  52.5021 -24.5892 -4.59077
LeftHand  -0.862274 -10.5456 8.9587
RightShoulder  0 2.42657e-020 1.07489e-018
RightArm  -26.6228 28.6175 76.4001
RightForeArm  32.9531 24.0495 4.50432
RightHand  -0.204649 25.6535 -0.528917
LeftUpLeg  -68.0662 4.81407 -17.741
LeftLeg  54.0597 7.41309 8.84928
LeftFoot  -18.0273 -0.362482 -2.28481
LeftToes  17.1266 2.37847e-007 4.89147e-008
457
root  62.719 25.2651 8.22975 -172.673 -9.96951 -162.181
RightUpLeg  -25.2477 -17.9102 4.25729
RightLeg  81.9482 1.2953 5.75648
RightFoot  -11.2316 0.00420831 0.420373
RightToes  -77.6128 -0.565099 -0.417527
Spine  18.6627 1.05802 1.50419
Spine1  31.6508 5.4275 0.661689
HEad  22.8205 20.3376 -5.35868
LeftShoulder1  0 -2.42657e-020 -4.95415e-022
LeftArm  -37.2466 -38.9856 -63.8072
LeftForeArm  60.8084 -13.6559 -2.40572
LeftHand  0.277551 -14.8439 -2.50149
RightShoulder  0 2.42657e-020 1.07489e-018
RightArm  -27.2438 36.4059 80.1661
RightForeArm  32.8871 19.1978 3.51152
RightHand  0.535906 25.8624 2.7044
LeftUpLeg  -67.7335 5.40717 -14.6721
LeftLeg  55.5149 5.79453 7.31081
LeftFoot  -9.79114 0.0141088 0.164712
LeftToes  22.7433 2.37847e-007 4.89147e-008
458
root  62.4985 24.7393 6.13304 -173.635 -9.34924 -162.252
RightUpLeg  -26.0222 -14.8771 -0.840114
RightLeg  89.9305 1.22492 16.5075
RightFoot  -4.18303 0.0283754 1.15471
RightToes  -61.9273 -0.412818 -0.402876
Spine  18.8679 2.05353 1.41824
Spine1  32.1844 8.26226 -0.75617
HEad  23.6704 21.4202 -6.80416
LeftShoulder1  0 -2.42657e-020 -4.95415e-022
LeftArm  -29.8689 -41.0816 -68.4029
LeftForeArm  68.9886 -7.89421 -1.33727
LeftHand  0.986063 -13.5252 -8.67549
RightShoulder  0 2.42657e-020 1.07489e-018
RightArm  -34.1145 42.0656 84.3624
RightForeArm  40.7369 14.5223 2.60355
RightHand  0.730006 26.9548 3.41609
LeftUpLeg  -68.6115 7.64405 -16.452
LeftLeg  63.229 4.25855 7.18669
LeftFoot  -14.0084 -0.0185342 -0.150866
LeftToes  37.6714 2.37847e-007 4.89147e-008
459
root  61.855 24.5965 4.06675 -175.34 -10.6831 -163.665
RightUpLeg  -27.8037 -8.34975 -5.36899
RightLeg  92.8326 0.247163 8.61198
RightFoot  -4.23387 0.0584974 1.96031
RightToes  -51.2179 -0.313709 -0.369343
Spine  20.0191 3.12669 1.87228
Spine1  34.5115 10.6646 -0.890044
HEad  20.5773 19.6136 -9.10174
LeftShoulder1  0 -2.42657e-020 -4.95415e-022
LeftArm  -24.9338 -40.3613 -76.4198
LeftForeArm  67.0604 -9.38653 -1.60985
LeftHand  0.978071 -12.9643 -8.96703
RightShoulder  0 2.42657e-020 1.07489e-018
RightArm  -40.4069 45.8131 82.6406
RightForeArm  41.0614 13.7073 2.45067
RightHand  1.26279 26.345 5.76315
LeftUpLeg  -64.8368 5.82942 -17.0621
LeftLeg  67.8113 4.19935 8.57279
LeftFoot  -18.8603 -0.22086 -1.32972
LeftToes  37.6623 2.37847e-007 4.89147e-008
460
root  60.9915 25.0255 2.29241 -176.668 -12.381 -164.672
RightUpLeg  -31.5293 0.841905 -8.02422
RightLeg  90.5177 0.116714 0.0663771
RightFoot  -7.16504 0.123206 2.34546
RightToes  -37.2414 -0.19683 -0.299015
Spine  20.6652 4.60549 3.39729
Spine1  36.7073 13.2687 1.04699
HEad  20.6146 16.3021 -10.7317
LeftShoulder1  0 -2.42657e-020 -4.95415e-022
LeftArm  -17.6563 -35.2332 -85.5486
LeftForeArm  58.2496 -15.9356 -2.84022
LeftHand  0.670306 -12.6559 -6.41239
RightShoulder  0 2.42657e-020 1.07489e-018
RightArm  -43.6809 46.5634 75.3012
RightForeArm  34.9169 14.6284 2.62954
RightHand  1.83537 26.4471 8.1712
LeftUpLeg  -59.1536 4.73979 -17.7394
LeftLeg  68.0622 4.0758 8.41651
LeftFoot  -21.4859 -0.358311 -1.8884
LeftToes  36.8383 2.37847e-007 4.89147e-008
461
root  59.9834 25.8179 0.77285 -177.435 -15.7878 -166.206
RightUpLeg  -35.0815 9.12484 -11.2958
RightLeg  84.0956 -0.788815 -5.24275
RightFoot  -9.8467 0.203346 2.73804
RightToes  -28.6649 -0.134836 -0.24258
Spine  20.4018 5.79439 5.21082
Spine1  37.5173 15.036 3.63609
HEad  22.6145 11.9921 -10.2167
LeftShoulder1  0 -2.42657e-020 -4.95415e-022
LeftArm  -13.5356 -28.9905 -93.4922
LeftForeArm  49.9659 -20.4862 -3.74542
LeftHand  0.330151 -12.16 -3.4707
RightShoulder  0 2.42657e-020 1.07489e-018
RightArm  -47.0831 43.0941 66.1408
RightForeArm  30.8739 17.2748 3.13691
RightHand  1.785 26.7342 7.87346
LeftUpLeg  -52.3066 4.41951 -19.7103
LeftLeg  65.004 3.43617 6.2407
LeftFoot  -21.5713 -0.248776 -1.30586
LeftToes  38.0414 2.37847e-007 4.89147e-008
462
root  58.9874 26.7956 -0.511555 -177.913 -21.3419 -167.363
RightUpLeg  -37.6116 13.8125 -14.0009
RightLeg  74.9845 -2.93882 -8.84762
RightFoot  -13.9637 0.370611 3.40335
RightToes  -21.3397 -0.0890521 -0.187505
Spine  19.3117 6.11436 7.10187
Spine1  36.6105 14.7669 6.69498
HEad  25.3305 8.13635 -9.31761
LeftShoulder1  0 -2.42657e-020 -4.95415e-022
LeftArm  -14.9352 -21.9231 -99.2199
LeftForeArm  47.6367 -23.0432 -4.27288
LeftHand  0.116083 -11.6536 -1.50833
RightShoulder  0 2.42657e-020 1.07489e-018
RightArm  -48.4402 36.3964 58.5774
RightForeArm  24.2458 22.1883 4.11933
RightHand  2.32416 26.6354 10.1681
LeftUpLeg  -47.3734 7.29015 -22.2153
LeftLeg  63.6222 0.750578 1.28458
LeftFoot  -16.2071 0.131362 0.922559
LeftToes  36.6524 2.37847e-007 4.89147e-008
463
root  58.0512 27.7478 -1.61169 -177.677 -28.7797 -168.858
RightUpLeg  -39.0458 11.9555 -16.3114
RightLeg  63.8407 -4.92076 -8.60893
RightFoot  -15.4441 0.404158 3.35762
RightToes  -22.8859 -0.0981241 -0.199611
Spine  17.8095 5.25645 7.99705
Spine1  34.1865 12.4171 7.9372
HEad  26.0633 6.59999 -9.30474
LeftShoulder1  0 -2.42657e-020 -4.95415e-022
LeftArm  -16.4313 -16.1144 -100.529
LeftForeArm  43.7871 -24.7937 -4.64916
LeftHand  -0.00324823 -9.92697 -0.332785
RightShoulder  0 2.42657e-020 1.07489e-018
RightArm  -46.8385 30.1439 55.4998
RightForeArm  21.4329 27.9947 5.37479
RightHand  1.78344 26.0141 8.08147
LeftUpLeg  -46.1756 13.1874 -24.5154
LeftLeg  66.8882 -3.74757 -7.38837
LeftFoot  -4.02386 0.0738395 2.10169
LeftToes  33.0304 2.37847e-007 4.89147e-008
464
root  57.3045 28.3726 -2.73401 -177.161 -35.1399 -170.069
RightUpLeg  -40.3384 4.61653 -16.5486
RightLeg  51.9875 -2.63252 -3.0033
RightFoot  -11.8966 0.104457 1.38015
RightToes  -39.9793 -0.218318 -0.315005
Spine  16.49 4.33288 7.91358
Spine1  31.7674 10.2582 7.61922
HEad  24.4174 7.49395 -9.90129
LeftShoulder1  0 -2.42657e-020 -4.95415e-022
LeftArm  -17.8911 -12.331 -98.5884
LeftForeArm  42.2391 -25.5655 -4.81806
LeftHand  -0.0753545 -10.0273 0.48931
RightShoulder  0 2.42657e-020 1.07489e-018
RightArm  -49.2989 26.3506 56.3413
RightForeArm  33.4302 31.5477 6.20829
RightHand  -0.595698 25.3545 -2.27831
LeftUpLeg  -48.0814 18.9808 -23.8374
LeftLeg  74.3626 -7.19312 -19.6737
LeftFoot  11.3547 0.270937 -2.72485
LeftToes  -17.2963 2.37847e-007 4.89147e-008
